PathFileType	4	(X/Y/Z)	/Users/itak/Documents/Research/Walk-IL/dataset/trc/00160_00008.trc
DataRate	CameraRate	NumFrames	NumMarkers	Units	OrigDataRate	OrigDataStartFrame	OrigNumFrames
100.000000	100.000000	4	53	mm	100.000000	419	559
Frame#	Time	RPSI			LPSI			L3			STRN			T10			C7			CLAV			RBAK			LBAK			LSHO			LUPA			LAEL			LAOL			LWTS			LWPS			LFRA			LIFD			LHPS			LHTS			RSHO			RUPA			RAEL			RAOL			RWTS			RWPS			RFRA			RIFD			RHTS			RHPS			RBHD			LFHD			RFHD			LBHD			LHIP			RHIP			RASI			LASI			LKNE			LTHI			LANK			LTIP			LTOE			LMT1			LMT5			LHEE			RKNE			RTHI			RANK			RTIP			RTOE			RMT1			RMT5			RHEE			
		X1	Y1	Z1	X2	Y2	Z2	X3	Y3	Z3	X4	Y4	Z4	X5	Y5	Z5	X6	Y6	Z6	X7	Y7	Z7	X8	Y8	Z8	X9	Y9	Z9	X10	Y10	Z10	X11	Y11	Z11	X12	Y12	Z12	X13	Y13	Z13	X14	Y14	Z14	X15	Y15	Z15	X16	Y16	Z16	X17	Y17	Z17	X18	Y18	Z18	X19	Y19	Z19	X20	Y20	Z20	X21	Y21	Z21	X22	Y22	Z22	X23	Y23	Z23	X24	Y24	Z24	X25	Y25	Z25	X26	Y26	Z26	X27	Y27	Z27	X28	Y28	Z28	X29	Y29	Z29	X30	Y30	Z30	X31	Y31	Z31	X32	Y32	Z32	X33	Y33	Z33	X34	Y34	Z34	X35	Y35	Z35	X36	Y36	Z36	X37	Y37	Z37	X38	Y38	Z38	X39	Y39	Z39	X40	Y40	Z40	X41	Y41	Z41	X42	Y42	Z42	X43	Y43	Z43	X44	Y44	Z44	X45	Y45	Z45	X46	Y46	Z46	X47	Y47	Z47	X48	Y48	Z48	X49	Y49	Z49	X50	Y50	Z50	X51	Y51	Z51	X52	Y52	Z52	X53	Y53	Z53	

420	4.19	560.51025390625	998.350341796875	40.6128044128418	544.1200561523438	1006.765869140625	-81.85442352294922	550.2337036132812	1037.890625	-19.97532272338867	795.1091918945312	1262.667114257812	-40.85816192626953	499.9456481933594	1191.445556640625	-30.58112716674805	548.8927001953125	1465.879760742188	-44.51202011108398	759.1193237304688	1374.196411132812	-44.0156135559082	493.4906921386719	1282.521118164062	63.55440902709961	541.5704956054688	1444.625244140625	-145.1339111328125	619.5609741210938	1439.31640625	-224.9186248779297	595.7139282226562	1306.339599609375	-300.6129760742188	634.8169555664062	1091.741821289062	-326.1509704589844	593.6071166992188	1067.550537109375	-252.5431060791016	791.5218505859375	888.8406982421875	-300.0068664550781	715.2156372070312	849.7012329101562	-339.3995666503906	669.3394775390625	985.1912231445312	-341.8025817871094	847.7327270507812	713.46142578125	-280.6035461425781	752.3475341796875	786.5150146484375	-337.3606567382812	819.3923950195312	816.2863159179688	-322.1954956054688	615.7257080078125	1441.115356445312	136.5221862792969	595.6710205078125	1372.940673828125	202.8945465087891	566.2962646484375	1087.008544921875	248.3425903320312	572.1220092773438	1081.674438476562	151.4636383056641	694.6614990234375	852.804931640625	240.1104278564453	616.6062622070312	840.6103515625	280.1068115234375	587.2046508789062	1013.92431640625	268.2140808105469	697.5619506835938	664.5706787109375	215.1821441650391	713.9099731445312	756.7476806640625	249.4528045654297	638.8757934570312	755.755126953125	278.1182556152344	602.7196655273438	1624.954711914062	40.74545669555664	754.2714233398438	1686.998657226562	-103.2086410522461	766.8825073242188	1681.58642578125	25.54686546325684	579.9724731445312	1638.02978515625	-94.48214721679688	630.091064453125	957.2449951171875	-213.2087707519531	729.6033935546875	960.2767333984375	141.3501892089844	798.0570678710938	996.2523193359375	75.25018310546875	762.841064453125	995.81201171875	-184.4617614746094	555.636962890625	472.6266784667969	-175.7843627929688	592.1223754882812	614.0100708007812	-203.9244537353516	234.5889892578125	112.7397079467773	-117.0598907470703	401.3951110839844	292.8223876953125	-157.5651245117188	418.9333190917969	39.6196403503418	-94.08218383789062	382.8640747070312	44.61334991455078	-46.09454727172852	319.520263671875	46.12786483764648	-155.851318359375	200.3847808837891	153.4638214111328	-48.5773811340332	920.8175048828125	509.4825134277344	100.458610534668	841.2190551757812	761.552490234375	136.4999542236328	1025.2119140625	28.71794128417969	86.46440124511719	976.6954345703125	403.1302795410156	81.36773681640625	1227.853759765625	103.0908050537109	67.94565582275391	1180.880737304688	88.2467041015625	15.65197372436523	1133.933227539062	44.72840881347656	119.951286315918	972.9406127929688	23.02142715454102	16.68231582641602	
421	4.2	574.5737915039062	999.783203125	42.32832717895508	558.4743041992188	1007.224914550781	-80.50196075439453	564.2560424804688	1038.632568359375	-18.51033973693848	807.8718872070312	1263.821533203125	-39.88092803955078	513.0422973632812	1191.138671875	-28.50898170471191	560.4263305664062	1466.1044921875	-42.01077651977539	771.182861328125	1375.1337890625	-42.63446807861328	506.4394226074219	1282.155029296875	65.91554260253906	552.74658203125	1444.86474609375	-142.6302490234375	630.331787109375	1439.791381835938	-222.9627227783203	605.7940673828125	1306.398559570312	-297.9330444335938	643.390869140625	1091.652587890625	-323.0327758789062	603.025390625	1068.030151367188	-248.7015075683594	796.9932250976562	886.2330322265625	-298.3888244628906	719.5405883789062	848.485595703125	-336.8669738769531	676.1098022460938	984.6846923828125	-338.8666076660156	849.7745361328125	709.373046875	-279.2516479492188	755.4467163085938	784.6129760742188	-335.1694030761719	823.220947265625	813.13525390625	-320.76904296875	628.2054443359375	1441.111572265625	138.7879333496094	608.6494140625	1372.65869140625	205.0596466064453	579.6025390625	1086.897827148438	250.2612457275391	585.2922973632812	1081.478149414062	153.3841552734375	706.544189453125	852.0570068359375	242.32763671875	628.3801879882812	840.4727172851562	282.3009033203125	600.2084350585938	1013.878479003906	270.1294250488281	708.1337280273438	663.7738647460938	217.8289031982422	725.0925903320312	755.8842163085938	251.8807830810547	650.0759887695312	755.4968872070312	280.4791870117188	613.5889892578125	1625.377807617188	43.40780258178711	764.0844116210938	1688.470825195312	-101.0111694335938	777.2988891601562	1682.86669921875	27.64532089233398	590.08544921875	1638.533081054688	-91.62128448486328	643.508056640625	956.8187255859375	-211.8652954101562	744.1551513671875	962.4547119140625	142.5732574462891	812.4669189453125	997.26953125	76.07126617431641	776.7581787109375	996.1143188476562	-183.8284912109375	569.8228759765625	471.97705078125	-177.1500091552734	606.276611328125	613.6860961914062	-203.9926147460938	240.7171478271484	119.6732864379883	-115.8303985595703	411.7972106933594	295.4122009277344	-158.0030670166016	418.7886352539062	39.58618545532227	-93.97957611083984	385.1022338867188	44.58822631835938	-45.69424438476562	321.5093078613281	48.360595703125	-155.1663818359375	209.6275024414062	162.212890625	-47.01185989379883	933.6068115234375	510.4986267089844	100.5808792114258	855.2855224609375	763.068359375	137.4107666015625	1027.379760742188	28.90974044799805	86.42897033691406	987.974609375	403.121337890625	80.90573883056641	1234.031860351562	93.37139129638672	67.40061187744141	1186.03564453125	81.06829071044922	14.98856067657471	1136.7880859375	40.33367156982422	119.7583694458008	975.1033325195312	24.88005256652832	16.50368881225586	
422	4.21	588.1812133789062	1001.650817871094	43.71152496337891	572.5523681640625	1008.017028808594	-79.46877288818359	577.8719482421875	1039.781494140625	-17.33515548706055	820.4619140625	1265.286254882812	-38.91997909545898	525.9521484375	1191.247802734375	-26.60418319702148	571.9070434570312	1466.66796875	-39.59084701538086	783.1265258789062	1376.404907226562	-41.30374526977539	519.2994995117188	1282.217041015625	68.21445465087891	563.85888671875	1445.466064453125	-140.1905364990234	641.0167236328125	1440.581420898438	-221.0509033203125	615.7990112304688	1306.7568359375	-295.2325744628906	652.00390625	1091.94189453125	-319.8150634765625	612.6127319335938	1068.88623046875	-244.7415008544922	802.182373046875	883.8490600585938	-296.745849609375	723.5297241210938	847.642822265625	-334.2387084960938	682.7938232421875	984.5756225585938	-335.8361511230469	851.295166015625	705.52099609375	-278.0264892578125	758.1195678710938	783.0894775390625	-332.9521789550781	826.6338500976562	810.2271728515625	-319.3825988769531	640.59228515625	1441.525756835938	140.9571685791016	621.5648193359375	1372.811279296875	207.1626281738281	593.1228637695312	1087.214965820312	252.1801452636719	598.587158203125	1081.719360351562	155.2839050292969	718.7024536132812	851.7716674804688	244.5130157470703	640.49658203125	840.8208618164062	284.6050109863281	613.4868774414062	1014.294860839844	272.0584411621094	718.8377075195312	663.406982421875	220.4963226318359	736.5173950195312	755.450439453125	254.2599182128906	661.5790405273438	755.718017578125	282.9432983398438	624.4742431640625	1626.126342773438	46.07559585571289	773.9434814453125	1690.201416015625	-98.83600616455078	787.7598266601562	1684.391845703125	29.71513557434082	600.2337036132812	1639.39990234375	-88.77908325195312	656.8897705078125	956.613037109375	-210.6665954589844	758.0350952148438	965.1285400390625	143.7641143798828	826.4166870117188	998.7643432617188	77.03875732421875	790.4818725585938	996.6312255859375	-182.9257202148438	585.1009521484375	471.2278137207031	-178.7457122802734	621.1622924804688	613.3059692382812	-204.1325836181641	247.7862243652344	127.2070999145508	-114.4233779907227	423.1746826171875	298.1298828125	-158.5272521972656	418.9324035644531	39.33669662475586	-93.93345642089844	387.7878723144531	44.79914474487305	-45.37707901000977	323.8548889160156	51.18914031982422	-154.3245239257812	220.0879364013672	171.38818359375	-45.25544738769531	946.1676025390625	511.8772277832031	100.8774032592773	868.8234252929688	765.0504150390625	138.5437622070312	1029.261474609375	29.2154426574707	86.53630828857422	998.8682250976562	403.3314819335938	80.75758361816406	1239.41748046875	84.15572357177734	66.58709716796875	1190.35986328125	74.47212219238281	14.20062351226807	1139.187744140625	36.56924819946289	119.6515045166016	977.019775390625	26.75411415100098	16.57748031616211	
423	4.22	601.2620849609375	1003.819152832031	44.76836776733398	586.2374877929688	1009.08642578125	-78.71638488769531	591.01318359375	1041.265625	-16.42913246154785	832.8319091796875	1267.050659179688	-37.97776794433594	538.6249389648438	1191.765869140625	-24.87675857543945	583.3021240234375	1467.548706054688	-37.27761459350586	794.9136352539062	1378.001708984375	-40.03635025024414	532.0265502929688	1282.690185546875	70.41944885253906	574.8838500976562	1446.423095703125	-137.8389892578125	651.6004028320312	1441.710327148438	-219.1909332275391	625.7315673828125	1307.480590820312	-292.5833435058594	660.6315307617188	1092.6572265625	-316.5014038085938	622.3491821289062	1070.186157226562	-240.662841796875	807.091796875	881.7681884765625	-295.0912780761719	727.19970703125	847.2489013671875	-331.5113830566406	689.3798828125	984.9287719726562	-332.7149658203125	852.31201171875	702.02685546875	-276.9010925292969	760.3807983398438	782.0191040039062	-330.6949768066406	829.6333618164062	807.6307983398438	-318.0252685546875	652.8348388671875	1442.35791015625	142.9958648681641	634.3572387695312	1373.419067382812	209.1721954345703	606.8057250976562	1087.979614257812	254.0717315673828	611.9780883789062	1082.414672851562	157.1408843994141	731.147705078125	851.98388671875	246.6604919433594	652.9812622070312	841.6799926757812	287.025146484375	627.0083618164062	1015.196350097656	273.9908447265625	729.6994018554688	663.498291015625	223.1729278564453	748.2161254882812	755.4782104492188	256.5775756835938	673.424560546875	756.4464721679688	285.5215148925781	635.35205078125	1627.15380859375	48.71510696411133	783.8310546875	1692.162719726562	-96.69840240478516	798.2417602539062	1686.13134765625	31.74374771118164	610.3976440429688	1640.589111328125	-85.98455810546875	670.1344604492188	956.6349487304688	-209.6025238037109	771.1728515625	968.1619873046875	144.9374084472656	839.8079223632812	1000.73193359375	78.17499542236328	803.8922729492188	997.3712158203125	-181.7095947265625	601.4934692382812	470.3379211425781	-180.5093078613281	636.7854614257812	612.841552734375	-204.3508911132812	255.8376312255859	135.4043731689453	-112.8497543334961	435.5596618652344	300.9857177734375	-159.1102752685547	419.5960693359375	38.82131576538086	-93.99176025390625	391.0613708496094	45.43507766723633	-45.2120246887207	326.6676330566406	54.81172180175781	-153.3229675292969	231.7161407470703	181.0086822509766	-43.34304809570312	958.3240356445312	513.4522094726562	101.3314666748047	881.8347778320312	767.3911743164062	139.8584289550781	1030.863891601562	29.54904556274414	86.73550415039062	1009.239440917969	403.6250915527344	80.89140319824219	1243.921020507812	75.69037628173828	65.49525451660156	1193.841796875	68.56904602050781	13.26880264282227	1141.121826171875	33.51054000854492	119.600341796875	978.6602172851562	28.49996566772461	16.85854911804199	
